<svg width="26" height="17" viewBox="0 0 26 17" fill="none" xmlns="http://www.w3.org/2000/svg">
<path d="M0.874939 16.0409V0.709011H3.91337V2.62986C4.75156 1.6869 6.53271 0.289917 9.01235 0.289917C11.3174 0.289917 12.9239 1.23288 13.797 2.73463C15.1241 1.4075 16.9402 0.289917 19.1754 0.289917C23.2266 0.289917 25.0078 3.29343 25.0078 6.47156V16.0758H21.5852V6.54141C21.5852 4.55071 20.3977 3.32835 18.5467 3.32835C16.8704 3.32835 15.5432 4.44594 14.74 5.3889C14.7749 5.73814 14.8098 6.08739 14.8098 6.43664V16.0409H11.3872V6.54141C11.3872 4.55071 10.1998 3.32835 8.34879 3.32835C6.49779 3.32835 5.1008 4.65548 4.29754 5.70322V16.0409H0.874939Z" fill="black"/>
</svg>
